<?xml version="1.0" encoding="UTF-8"?>
<svg width="512" height="512" viewBox="0 0 512 512" fill="none" xmlns="http://www.w3.org/2000/svg">
  <path d="M256 64C150.13 64 64 150.13 64 256C64 361.87 150.13 448 256 448C361.87 448 448 361.87 448 256C448 150.13 361.87 64 256 64Z" fill="#10B981" fill-opacity="0.1"/>
  <path d="M256 96C167.78 96 96 167.78 96 256C96 344.22 167.78 416 256 416C344.22 416 416 344.22 416 256C416 167.78 344.22 96 256 96Z" fill="#10B981"/>
  <path d="M256 144C194.23 144 144 194.23 144 256C144 317.77 194.23 368 256 368C317.77 368 368 317.77 368 256C368 194.23 317.77 144 256 144Z" fill="white"/>
  <path d="M240 208V304H272V208H240Z" fill="#10B981"/>
  <path d="M208 240H304V272H208V240Z" fill="#10B981"/>
</svg> 